<svg xmlns="http://www.w3.org/2000/svg" viewBox="0 0 4000 4000"><path fill="#fff" d="M311,252 L205,363 L111,500 L40,654 L0,798 L0,3201 L40,3345 L94,3468 L171,3592 L268,3706 L400,3818 L569,3914 L748,3974 L933,3999 L3089,3995 L3258,3963 L3416,3904 L3560,3820 L3686,3715 L3807,3571 L3897,3410 L3955,3238 L3981,3050 L3977,892 L3946,726 L3888,569 L3800,418 L3699,297 L3550,172 L3394,85 L3207,23 L3028,0 L874,4 L723,31 L569,85 L442,153Z"/><path fill="#17472d" fill-rule="evenodd" d="M1926,2637 L1902,2594 L1850,2564 L1782,2549 L1720,2556 L1682,2585 L1587,2727 L1495,2808 L1367,2874 L1220,2906 L1098,2903 L950,2862 L831,2793 L726,2688 L689,2670 L625,2675 L550,2706 L506,2745 L494,2784 L543,2874 L610,2951 L693,3021 L798,3086 L926,3140 L1034,3168 L1140,3180 L1260,3176 L1370,3157 L1495,3115 L1590,3067 L1688,2998 L1773,2919 L1845,2830 L1899,2735ZM3240,1068 L3089,1017 L2957,1000 L2814,1008 L2673,1044 L2536,1110 L2418,1200 L2321,1310 L2250,1431 L2199,1580 L2181,1716 L2181,3158 L2200,3208 L2242,3243 L2275,3252 L2383,3248 L2432,3216 L2456,3166 L2458,2327 L2582,2409 L2748,2472 L2905,2493 L2999,2490 L3098,2474 L3251,2420 L3406,2320 L3524,2196 L3605,2061 L3650,1936 L3673,1790 L3666,1635 L3629,1490 L3566,1359 L3480,1244 L3373,1147ZM2880,1266 L2972,1266 L3058,1282 L3143,1315 L3225,1367 L3292,1431 L3350,1514 L3389,1606 L3408,1705 L3407,1798 L3388,1890 L3350,1979 L3298,2055 L3231,2121 L3151,2174 L3058,2211 L2971,2227 L2884,2227 L2790,2209 L2700,2172 L2626,2123 L2561,2060 L2504,1978 L2466,1888 L2447,1792 L2447,1700 L2466,1605 L2504,1515 L2555,1440 L2626,1370 L2696,1323 L2786,1285ZM1890,1009 L1856,1000 L1770,1000 L1719,1019 L1679,1074 L1674,1166 L1548,1083 L1399,1025 L1234,1000 L1067,1012 L945,1046 L832,1099 L731,1169 L654,1242 L568,1356 L502,1493 L466,1636 L459,1788 L484,1943 L529,2065 L600,2185 L702,2299 L817,2385 L940,2445 L1080,2483 L1226,2493 L1374,2474 L1513,2427 L1645,2350 L1751,2256 L1816,2176 L1881,2064 L1921,1959 L1946,1839 L1951,1094 L1932,1044ZM1187,1265 L1276,1267 L1379,1291 L1465,1331 L1540,1386 L1607,1459 L1658,1545 L1685,1619 L1701,1714 L1699,1801 L1679,1894 L1644,1976 L1586,2060 L1527,2118 L1447,2172 L1347,2212 L1251,2228 L1150,2224 L1055,2200 L978,2164 L904,2111 L837,2040 L785,1956 L754,1873 L738,1774 L743,1671 L766,1582 L802,1505 L854,1432 L918,1370 L992,1321 L1082,1284Z"/></svg>
